<svg xmlns="http://www.w3.org/2000/svg" style="display:none"><symbol id="menu" viewBox="0 0 24 24" fill="none" stroke="currentColor" stroke-width="2" stroke-linecap="round" stroke-linejoin="round"><line x1="4" y1="7" x2="20" y2="7"/><line x1="4" y1="12" x2="20" y2="12"/><line x1="4" y1="17" x2="20" y2="17"/></symbol><symbol id="bell" viewBox="0 0 24 24" fill="none" stroke="currentColor" stroke-width="2" stroke-linecap="round" stroke-linejoin="round"><path d="M6 9a6 6 0 0 1 12 0c0 5 2 6 2 6H4s2-1 2-6"/><path d="M10 20a2 2 0 0 0 4 0"/></symbol><symbol id="command" viewBox="0 0 24 24" fill="none" stroke="currentColor" stroke-width="2" stroke-linecap="round" stroke-linejoin="round"><rect x="7" y="7" width="10" height="10" rx="2"/><path d="M7 9V6a2 2 0 1 0-2 2h2zM17 9V6a2 2 0 1 1 2 2h-2zM7 15v3a2 2 0 1 1-2-2h2zM17 15v3a2 2 0 1 0 2-2h-2z"/></symbol><symbol id="contrast" viewBox="0 0 24 24" fill="none" stroke="currentColor" stroke-width="2" stroke-linecap="round" stroke-linejoin="round"><circle cx="12" cy="12" r="9"/><path d="M12 3v18a9 9 0 0 0 0-18z"/></symbol><symbol id="users" viewBox="0 0 24 24" fill="none" stroke="currentColor" stroke-width="2" stroke-linecap="round" stroke-linejoin="round"><circle cx="9" cy="8" r="3"/><path d="M3 20a6 6 0 0 1 12 0"/><path d="M16 6a3 3 0 0 1 0 6M21 20a6 6 0 0 0-5-5.9"/></symbol><symbol id="alert-triangle" viewBox="0 0 24 24" fill="none" stroke="currentColor" stroke-width="2" stroke-linecap="round" stroke-linejoin="round"><path d="M12 4 2 20h20L12 4z"/><line x1="12" y1="10" x2="12" y2="14"/><circle cx="12" cy="17" r=".6" fill="currentColor"/></symbol><symbol id="layout-dashboard" viewBox="0 0 24 24" fill="none" stroke="currentColor" stroke-width="2" stroke-linecap="round" stroke-linejoin="round"><rect x="3" y="3" width="8" height="9" rx="1"/><rect x="13" y="3" width="8" height="5" rx="1"/><rect x="13" y="11" width="8" height="10" rx="1"/><rect x="3" y="15" width="8" height="6" rx="1"/></symbol><symbol id="folder" viewBox="0 0 24 24" fill="none" stroke="currentColor" stroke-width="2" stroke-linecap="round" stroke-linejoin="round"><path d="M3 7a2 2 0 0 1 2-2h4l2 2h8a2 2 0 0 1 2 2v8a2 2 0 0 1-2 2H5a2 2 0 0 1-2-2V7z"/></symbol><symbol id="activity" viewBox="0 0 24 24" fill="none" stroke="currentColor" stroke-width="2" stroke-linecap="round" stroke-linejoin="round"><path d="M3 12h4l3 8 4-16 3 8h4"/></symbol><symbol id="workflow" viewBox="0 0 24 24" fill="none" stroke="currentColor" stroke-width="2" stroke-linecap="round" stroke-linejoin="round"><rect x="3" y="3" width="6" height="6" rx="1"/><rect x="15" y="15" width="6" height="6" rx="1"/><path d="M9 6h6a3 3 0 0 1 3 3v6"/></symbol><symbol id="git-branch" viewBox="0 0 24 24" fill="none" stroke="currentColor" stroke-width="2" stroke-linecap="round" stroke-linejoin="round"><circle cx="7" cy="6" r="2.5"/><circle cx="7" cy="18" r="2.5"/><circle cx="17" cy="8" r="2.5"/><path d="M7 8.5v7M17 10.5c0 4-4 3-7 4"/></symbol><symbol id="mail" viewBox="0 0 24 24" fill="none" stroke="currentColor" stroke-width="2" stroke-linecap="round" stroke-linejoin="round"><rect x="3" y="5" width="18" height="14" rx="2"/><path d="m4 7 8 6 8-6"/></symbol><symbol id="table" viewBox="0 0 24 24" fill="none" stroke="currentColor" stroke-width="2" stroke-linecap="round" stroke-linejoin="round"><rect x="3" y="4" width="18" height="16" rx="2"/><line x1="3" y1="10" x2="21" y2="10"/><line x1="9" y1="4" x2="9" y2="20"/></symbol><symbol id="message-square" viewBox="0 0 24 24" fill="none" stroke="currentColor" stroke-width="2" stroke-linecap="round" stroke-linejoin="round"><path d="M4 5a2 2 0 0 1 2-2h12a2 2 0 0 1 2 2v8a2 2 0 0 1-2 2H9l-5 4V5z"/></symbol><symbol id="check-circle" viewBox="0 0 24 24" fill="none" stroke="currentColor" stroke-width="2" stroke-linecap="round" stroke-linejoin="round"><circle cx="12" cy="12" r="9"/><path d="m8 12 3 3 5-6"/></symbol><symbol id="briefcase" viewBox="0 0 24 24" fill="none" stroke="currentColor" stroke-width="2" stroke-linecap="round" stroke-linejoin="round"><rect x="3" y="7" width="18" height="13" rx="2"/><path d="M8 7V5a2 2 0 0 1 2-2h4a2 2 0 0 1 2 2v2"/><line x1="3" y1="12" x2="21" y2="12"/></symbol><symbol id="trending-up" viewBox="0 0 24 24" fill="none" stroke="currentColor" stroke-width="2" stroke-linecap="round" stroke-linejoin="round"><path d="M3 17l6-6 4 4 8-8"/><path d="M16 7h5v5"/></symbol><symbol id="file-text" viewBox="0 0 24 24" fill="none" stroke="currentColor" stroke-width="2" stroke-linecap="round" stroke-linejoin="round"><path d="M6 3h8l4 4v14a1 1 0 0 1-1 1H6a1 1 0 0 1-1-1V4a1 1 0 0 1 1-1z"/><path d="M14 3v4h4"/><line x1="8" y1="13" x2="16" y2="13"/><line x1="8" y1="17" x2="14" y2="17"/></symbol><symbol id="file-plus" viewBox="0 0 24 24" fill="none" stroke="currentColor" stroke-width="2" stroke-linecap="round" stroke-linejoin="round"><path d="M6 3h8l4 4v14a1 1 0 0 1-1 1H6a1 1 0 0 1-1-1V4a1 1 0 0 1 1-1z"/><path d="M14 3v4h4"/><line x1="12" y1="11" x2="12" y2="17"/><line x1="9" y1="14" x2="15" y2="14"/></symbol><symbol id="layers" viewBox="0 0 24 24" fill="none" stroke="currentColor" stroke-width="2" stroke-linecap="round" stroke-linejoin="round"><path d="m12 3 9 5-9 5-9-5 9-5z"/><path d="m3 13 9 5 9-5"/></symbol><symbol id="stethoscope" viewBox="0 0 24 24" fill="none" stroke="currentColor" stroke-width="2" stroke-linecap="round" stroke-linejoin="round"><path d="M6 3v5a4 4 0 0 0 8 0V3"/><path d="M10 16v1a4 4 0 0 0 8 0v-2"/><circle cx="18" cy="11" r="2.5"/></symbol></svg>
